HIERARCHY
ROOT Hips
{
    OFFSET   0.000000   0.000000   0.000000
    CHANNELS 6 Xposition Yposition Zposition Zrotation Xrotation Yrotation
    JOINT Chest
    {
        OFFSET   0.000000   8.007230   0.000000
        CHANNELS 3 Zrotation Xrotation Yrotation
        JOINT Chest2
        {
            OFFSET   0.000000  22.077100   0.000000
            CHANNELS 3 Zrotation Xrotation Yrotation
            JOINT Neck
            {
                OFFSET   0.000000  23.254800  -0.000021
                CHANNELS 3 Zrotation Xrotation Yrotation
                JOINT Head
                {
                    OFFSET   0.000000  14.370000   1.956610
                    CHANNELS 3 Zrotation Xrotation Yrotation
                    End Site
                    {
                        OFFSET   0.000000  19.566000   0.000000
                    }
                }
            }
            JOINT LeftCollar
            {
                OFFSET   3.911900  19.017000  -0.467063
                CHANNELS 3 Zrotation Xrotation Yrotation
                JOINT LeftShoulder
                {
                    OFFSET  10.383700   0.000000   0.000000
                    CHANNELS 3 Zrotation Xrotation Yrotation
                    JOINT LeftElbow
                    {
                        OFFSET  26.662100   0.001529   0.000325
                        CHANNELS 3 Zrotation Xrotation Yrotation
                        JOINT LeftWrist
                        {
                            OFFSET  28.869000  -0.000011  -0.000096
                            CHANNELS 3 Zrotation Xrotation Yrotation
                            JOINT LeftFinger0
                            {
                                OFFSET   2.044650  -2.323460   3.252850
                                CHANNELS 3 Zrotation Xrotation Yrotation
                                JOINT LeftFinger01
                                {
                                    OFFSET   3.088130   0.000000   0.000000
                                    CHANNELS 3 Zrotation Xrotation Yrotation
                                    JOINT LeftFinger02
                                    {
                                        OFFSET   2.639460   0.000000   0.000000
                                        CHANNELS 3 Zrotation Xrotation Yrotation
                                        End Site
                                        {
                                            OFFSET   2.582190   0.000000   0.000000
                                        }
                                    }
                                }
                            }
                            JOINT LeftFinger1
                            {
                                OFFSET   8.364480   0.000000   3.252850
                                CHANNELS 3 Zrotation Xrotation Yrotation
                                JOINT LeftFinger11
                                {
                                    OFFSET   4.646930   0.000000   0.000000
                                    CHANNELS 3 Zrotation Xrotation Yrotation
                                    JOINT LeftFinger12
                                    {
                                        OFFSET   2.323460   0.000000   0.000000
                                        CHANNELS 3 Zrotation Xrotation Yrotation
                                        End Site
                                        {
                                            OFFSET   2.273050   0.000000   0.000000
                                        }
                                    }
                                }
                            }
                            JOINT LeftFinger2
                            {
                                OFFSET   8.364480   0.000016   1.078090
                                CHANNELS 3 Zrotation Xrotation Yrotation
                                JOINT LeftFinger21
                                {
                                    OFFSET   5.111620   0.000000   0.000000
                                    CHANNELS 3 Zrotation Xrotation Yrotation
                                    JOINT LeftFinger22
                                    {
                                        OFFSET   2.788160   0.000017   0.000000
                                        CHANNELS 3 Zrotation Xrotation Yrotation
                                        End Site
                                        {
                                            OFFSET   2.727660   0.000000   0.000000
                                        }
                                    }
                                }
                            }
                            JOINT LeftFinger3
                            {
                                OFFSET   7.899780   0.000015  -1.078090
                                CHANNELS 3 Zrotation Xrotation Yrotation
                                JOINT LeftFinger31
                                {
                                    OFFSET   4.646920   0.000000   0.000000
                                    CHANNELS 3 Zrotation Xrotation Yrotation
                                    JOINT LeftFinger32
                                    {
                                        OFFSET   2.323470   0.000000   0.000000
                                        CHANNELS 3 Zrotation Xrotation Yrotation
                                        End Site
                                        {
                                            OFFSET   2.273050   0.000000   0.000000
                                        }
                                    }
                                }
                            }
                            JOINT LeftFinger4
                            {
                                OFFSET   7.435090   0.000000  -3.252850
                                CHANNELS 3 Zrotation Xrotation Yrotation
                                JOINT LeftFinger41
                                {
                                    OFFSET   3.717550   0.000000   0.000000
                                    CHANNELS 3 Zrotation Xrotation Yrotation
                                    JOINT LeftFinger42
                                    {
                                        OFFSET   1.858760   0.000000   0.000000
                                        CHANNELS 3 Zrotation Xrotation Yrotation
                                        End Site
                                        {
                                            OFFSET   1.818440   0.000000   0.000000
                                        }
                                    }
                                }
                            }
                        }
                    }
                }
            }
            JOINT RightCollar
            {
                OFFSET  -3.911900  19.017000  -0.467062
                CHANNELS 3 Zrotation Xrotation Yrotation
                JOINT RightShoulder
                {
                    OFFSET -10.383700   0.000015   0.000000
                    CHANNELS 3 Zrotation Xrotation Yrotation
                    JOINT RightElbow
                    {
                        OFFSET -26.662100   0.001341   0.000385
                        CHANNELS 3 Zrotation Xrotation Yrotation
                        JOINT RightWrist
                        {
                            OFFSET -28.869000   0.000025  -0.000080
                            CHANNELS 3 Zrotation Xrotation Yrotation
                            JOINT RightFinger0
                            {
                                OFFSET  -2.044650  -2.323490   3.252850
                                CHANNELS 3 Zrotation Xrotation Yrotation
                                JOINT RightFinger01
                                {
                                    OFFSET  -3.088130   0.000000   0.000000
                                    CHANNELS 3 Zrotation Xrotation Yrotation
                                    JOINT RightFinger02
                                    {
                                        OFFSET  -2.639460   0.000000   0.000000
                                        CHANNELS 3 Zrotation Xrotation Yrotation
                                        End Site
                                        {
                                            OFFSET  -2.582190   0.000000   0.000000
                                        }
                                    }
                                }
                            }
                            JOINT RightFinger1
                            {
                                OFFSET  -8.364480   0.000000   3.252850
                                CHANNELS 3 Zrotation Xrotation Yrotation
                                JOINT RightFinger11
                                {
                                    OFFSET  -4.646930   0.000000   0.000000
                                    CHANNELS 3 Zrotation Xrotation Yrotation
                                    JOINT RightFinger12
                                    {
                                        OFFSET  -2.323470   0.000000   0.000000
                                        CHANNELS 3 Zrotation Xrotation Yrotation
                                        End Site
                                        {
                                            OFFSET  -2.273050   0.000000   0.000000
                                        }
                                    }
                                }
                            }
                            JOINT RightFinger2
                            {
                                OFFSET  -8.364480   0.000000   1.078090
                                CHANNELS 3 Zrotation Xrotation Yrotation
                                JOINT RightFinger21
                                {
                                    OFFSET  -5.111610   0.000000   0.000000
                                    CHANNELS 3 Zrotation Xrotation Yrotation
                                    JOINT RightFinger22
                                    {
                                        OFFSET  -2.788160   0.000000   0.000000
                                        CHANNELS 3 Zrotation Xrotation Yrotation
                                        End Site
                                        {
                                            OFFSET  -2.727660   0.000000   0.000000
                                        }
                                    }
                                }
                            }
                            JOINT RightFinger3
                            {
                                OFFSET  -7.899780   0.000000  -1.078090
                                CHANNELS 3 Zrotation Xrotation Yrotation
                                JOINT RightFinger31
                                {
                                    OFFSET  -4.646920   0.000000   0.000000
                                    CHANNELS 3 Zrotation Xrotation Yrotation
                                    JOINT RightFinger32
                                    {
                                        OFFSET  -2.323470   0.000000   0.000000
                                        CHANNELS 3 Zrotation Xrotation Yrotation
                                        End Site
                                        {
                                            OFFSET  -2.273050   0.000000   0.000000
                                        }
                                    }
                                }
                            }
                            JOINT RightFinger4
                            {
                                OFFSET  -7.435090   0.000000  -3.252850
                                CHANNELS 3 Zrotation Xrotation Yrotation
                                JOINT RightFinger41
                                {
                                    OFFSET  -3.717550   0.000000   0.000000
                                    CHANNELS 3 Zrotation Xrotation Yrotation
                                    JOINT RightFinger42
                                    {
                                        OFFSET  -1.858770   0.000000   0.000000
                                        CHANNELS 3 Zrotation Xrotation Yrotation
                                        End Site
                                        {
                                            OFFSET  -1.818440   0.000000   0.000000
                                        }
                                    }
                                }
                            }
                        }
                    }
                }
            }
        }
    }
    JOINT LeftHip
    {
        OFFSET   9.783010   0.000000   0.000000
        CHANNELS 3 Zrotation Xrotation Yrotation
        JOINT LeftKnee
        {
            OFFSET   0.000070 -41.789100   0.000028
            CHANNELS 3 Zrotation Xrotation Yrotation
            JOINT LeftAnkle
            {
                OFFSET   0.000087 -41.133200  -0.000100
                CHANNELS 3 Zrotation Xrotation Yrotation
                JOINT LeftToe
                {
                    OFFSET   0.000000  -6.358960  14.674500
                    CHANNELS 3 Zrotation Xrotation Yrotation
                    End Site
                    {
                        OFFSET   0.000000   0.000000   3.913200
                    }
                }
            }
        }
    }
    JOINT RightHip
    {
        OFFSET  -9.783020   0.000000   0.000000
        CHANNELS 3 Zrotation Xrotation Yrotation
        JOINT RightKnee
        {
            OFFSET   0.000044 -41.789100  -0.000870
            CHANNELS 3 Zrotation Xrotation Yrotation
            JOINT RightAnkle
            {
                OFFSET  -0.000090 -41.133200  -0.000245
                CHANNELS 3 Zrotation Xrotation Yrotation
                JOINT RightToe
                {
                    OFFSET   0.000000  -6.358960  14.674500
                    CHANNELS 3 Zrotation Xrotation Yrotation
                    End Site
                    {
                        OFFSET   0.000000   0.000000   3.913200
                    }
                }
            }
        }
    }
}
MOTION
Frames: 4
Frame Time:   0.016667
 -0.397051  90.074400   0.549484  -0.977214 -12.187500   0.129909  -0.496169   9.653200  -0.334845  -0.954964  19.308900  -0.596454   1.206200  -2.271010   0.047557   2.007550  -4.596360   3.458230  -7.288190  -2.882270   5.594570 -63.411100  24.179400 -10.539200  -3.394680  -6.113500 -19.463500  17.409600   0.843450   8.121440  39.638800  30.698200 -65.774100 -27.133200   0.019253   0.026218  -8.566580   0.010004   0.012862 -32.530900   8.405230 -12.912000 -27.393000   0.010715   0.008733 -19.175100   0.007147   0.008352 -28.856300   1.499190  -2.719680 -43.536600  -0.013047   0.006294 -28.995400  -0.005056   0.000352 -28.278300   1.469950  -2.734150 -34.188700  -0.011367   0.004335 -22.769600   0.001758  -0.000626 -30.975400   0.804205  -1.348270 -46.470600  -0.009862  -0.003621 -30.949400   0.001338   0.005912  13.984700   0.425012  11.049600  61.554000  15.210700   7.802450   2.660950  -7.657990  15.673300 -14.198900 -10.311700   2.051960 -36.709000  34.165300  68.734900  34.547500  -0.048254   0.000253  12.273800  -0.019811   0.032281  30.637300   1.752030   2.960750  25.100700  -0.001654   0.013540  17.570500  -0.001761   0.014891  27.321800  -1.413840  -2.719710  28.544600   0.000000  -0.003356  19.010700  -0.006674   0.011391  28.134900  -2.306780  -4.295080  33.612400   0.001218  -0.004833  22.385900  -0.003549  -0.003263  35.454700  -3.612020  -5.045070  53.415000   0.004066  -0.008006  35.574400  -0.002871  -0.004502   1.341210  12.191700   2.436960   0.852323   2.444710  10.655100  -6.249100  -3.791010   3.751970  -0.000000   0.000000  -0.000000   3.696330  11.269100  -3.594270  -1.130920   4.191740  -9.763660 -10.783900   0.517256   0.247039  -0.000000   0.000000   0.000000
 -0.341732  90.072200   0.536592  -1.003700 -12.127100  -0.288411  -0.379626   9.581040  -0.298505  -0.737020  19.164100  -0.537883   1.330020  -2.121020   0.048483   2.283220  -4.315600   9.898730  -7.251240  -2.607960   5.506980 -63.460200  24.203500 -10.656000  -3.870660  -6.255370 -19.140900  16.688200   1.006340   8.172880  39.297800  30.640700 -66.305000 -27.253700   0.022600   0.032657  -8.626870   0.011915   0.013664 -32.459100   8.025760 -12.430600 -27.256100   0.020135   0.009145 -19.079300   0.013449   0.008444 -28.825400   1.139860  -2.071070 -43.003600  -0.017913   0.007207 -28.640400  -0.005002   0.000206 -28.240400   1.117290  -2.081060 -33.759100  -0.015867   0.004069 -22.483500   0.001674  -0.000626 -30.796200   0.420930  -0.701487 -46.194900  -0.015135  -0.003621 -30.765800   0.001265   0.007396  14.023900   0.578372  10.876100  61.581800  13.989000   7.754000   2.587240  -7.367990  16.315300 -13.484200  -8.340070   1.559080 -37.456900  34.330100  68.823000  33.670800  -0.040623   0.000253  11.835400  -0.017009   0.025401  29.905100   2.310140   4.032980  24.517700  -0.001655   0.009067  17.162400  -0.001760   0.012563  27.118900  -0.879705  -1.702630  27.462500  -0.007323  -0.003846  18.290000  -0.006641   0.011843  28.012700  -1.741610  -3.246330  32.344000  -0.004984   0.001095  21.541200  -0.003417   0.002115  34.624800  -2.981970  -4.309290  52.105600   0.000085  -0.001791  34.702300  -0.002871  -0.000184   1.479240  12.250200   2.566920   0.623532   2.316680  10.843600  -6.301650  -3.791140   3.795910   0.000000   0.000000   0.000000   3.647600  11.020900  -3.603530  -1.169610   4.403960  -9.619360 -10.828400   0.445431   0.458610   0.000000   0.000000   0.000000
 -0.314618  90.069100   0.504347  -1.005320 -12.004100  -0.781696  -0.305311   9.507160  -0.165349  -0.594923  19.015100  -0.284495   1.583790  -2.019720   0.054993   2.606990  -4.091400  15.122200  -7.100740  -2.442810   5.407730 -63.569500  24.399700 -11.072300  -4.203120  -6.666710 -18.404600  15.510900   1.807110   8.262860  39.199400  30.615100 -66.664300 -27.270900   0.023281   0.035154  -8.635480   0.012381   0.013779 -32.105100   7.783090 -12.178000 -26.952000   0.026017   0.010123 -18.866400   0.017466   0.008743 -28.767500   0.939771  -1.711260 -41.967700  -0.020640   0.008031 -27.950500  -0.004940   0.000067 -28.117200   0.919679  -1.719320 -32.890000  -0.018014   0.003718 -21.904700   0.001583  -0.000627 -30.352400   0.187573  -0.315584 -45.539700  -0.018060  -0.003623 -30.329400   0.001188   0.008101  14.134900   0.712459  10.603000  61.484600  12.782600   7.680380   2.503930  -6.847450  17.448700 -13.284900  -7.397470   1.387230 -38.265500  34.700000  69.047700  32.734500  -0.024936   0.000248  11.367300  -0.011014   0.012859  29.384700   2.916800   5.179550  24.143400  -0.001655  -0.000061  16.900400  -0.001760   0.006152  27.008800  -0.280910  -0.530143  26.896600  -0.016774  -0.004241  17.913100  -0.006588   0.012240  27.950000  -1.129670  -2.110030  31.628600  -0.013803   0.006565  21.064700  -0.003284   0.007493  34.163500  -2.158150  -3.139080  51.313100  -0.006494   0.007135  34.174500  -0.002871   0.006339   1.557920  12.268500   2.608090   0.461989   2.250590  11.167700  -6.329500  -3.792900   3.907970  -0.000000   0.000000   0.000000   3.554210  10.725500  -3.686180  -1.194330   4.601960  -9.331630 -10.856800   0.375193   0.814747  -0.000000   0.000000  -0.000000
 -0.331751  90.068300   0.452167  -0.993130 -11.852500  -1.189210  -0.327500   9.451470   0.131977  -0.674494  18.902400   0.324412   1.976350  -2.140850   0.073609   3.086840  -4.318580  16.603500  -6.755670  -2.497710   5.321120 -63.689900  25.132100 -12.018900  -4.278830  -7.476950 -17.277400  14.469700   3.757570   8.369960  39.375700  30.676800 -66.697700 -26.979700   0.021609   0.032822  -8.489840   0.011900   0.013663 -31.479000   7.786060 -12.389100 -26.488400   0.025996   0.012391 -18.541900   0.017527   0.009833 -28.721300   1.049930  -1.917210 -40.688400  -0.011875   0.008743 -27.098500  -0.004868  -0.000061 -27.930700   1.022780  -1.929950 -31.757900  -0.010414   0.003301 -21.150700   0.001487  -0.000629 -29.652300   0.303736  -0.540262 -44.492100  -0.011209  -0.003624 -29.631700   0.001105   0.008283  14.302200   0.760974  10.378300  61.342500  12.251300   6.975100   2.358970  -6.252430  18.774700 -14.417300  -8.488470   2.088250 -39.096500  35.264800  69.452300  32.044500  -0.000850  -0.004274  11.022300  -0.001668  -0.002906  29.311400   3.372040   5.969250  24.150300  -0.001656  -0.013228  16.905200  -0.001762  -0.005965  27.132200   0.185767   0.357355  27.445400  -0.019256  -0.004549  18.278600  -0.006553   0.012587  28.021600  -0.688770  -1.294320  32.033700  -0.018066   0.002191  21.334500  -0.003149   0.007406  34.312500  -1.455780  -2.129080  51.486500  -0.012902   0.011761  34.290100  -0.002872   0.010841   1.519700  12.136800   2.495450   0.436541   2.311400  11.518600  -6.313590  -3.843070   4.094670   0.000000   0.000000   0.000000   3.405510  10.446100  -3.989250  -1.212970   4.687660  -8.925840 -10.848200   0.353127   1.181450   0.000000   0.000000   0.000000
